<?xml version="1.0" encoding="utf-8"?>
<svg viewBox="252.869 232.897 128.501 127.526" height="35" xmlns="http://www.w3.org/2000/svg" >
	<defs>
		<linearGradient id="linearGradient4884" gradientUnits="userSpaceOnUse" x1="333.48315" y1="702.59973" x2="477.00238" y2="563.7301" gradientTransform="matrix(0.4226,-0.9063,0.9063,0.4226,6189.0356,-1936.8361)">
			<stop offset="0" style="stop-color:#F69923" id="stop3286-8"/>
			<stop offset="0.11" style="stop-color:#F79A23" id="stop3288-2"/>
			<stop offset="0.945" style="stop-color:#E97826" id="stop3290-2"/>
		</linearGradient>
		<linearGradient id="linearGradient4886" gradientUnits="userSpaceOnUse" x1="333.48315" y1="702.59973" x2="477.00238" y2="563.7301" gradientTransform="matrix(0.4226,-0.9063,0.9063,0.4226,6189.0356,-1936.8361)">
			<stop id="stop3951" style="stop-color:#F69923" offset="0"/>
			<stop id="stop3953" style="stop-color:#F79A23" offset="0.0805"/>
			<stop id="stop3955" style="stop-color:#E97826" offset="0.4187"/>
		</linearGradient>
		<linearGradient id="linearGradient4888" gradientUnits="userSpaceOnUse" x1="633.55072" y1="814.59906" x2="566.47131" y2="909.11664" gradientTransform="matrix(0.4226,-0.9063,0.9063,0.4226,6189.0356,-1936.8361)">
			<stop id="stop4558" style="stop-color:#f6e423;stop-opacity:1" offset="0"/>
			<stop id="stop4560" style="stop-color:#F79A23" offset="0.4119"/>
			<stop id="stop4562" style="stop-color:#E97826" offset="0.7327"/>
		</linearGradient>
	</defs>
	<g id="g4564" transform="matrix(1, 0, 0, 1, -270.441902, -548.639339)">
		<g transform="translate(216.2639,-21.04569)" id="g4478">
			<path style="fill:url(#linearGradient4884);stroke:url(#linearGradient4886);stroke-width:5;stroke-linejoin:round" id="path4222" d="m 475.35281,629.22614 a 63.02026,63.02026 0 0 1 -63.02026,63.02026 63.02026,63.02026 0 0 1 -63.02026,-63.02026 63.02026,63.02026 0 0 1 63.02026,-63.02026 63.02026,63.02026 0 0 1 63.02026,63.02026 z" transform="matrix(0.99205956,0,0,0.99205956,-36.8047,240.87219)"/>
		</g>
		<path id="path4491" d="m 573.3125,817.40625 c -0.88906,-10e-4 -1.78972,0.005 -2.6875,0.0312 -1.0437,0.0308 -2.44587,0.36218 -4.0625,0.90625 27.30936,20.73702 37.12671,58.14612 20.25,90.65625 0.57317,0.0149 1.14197,0.0625 1.71875,0.0625 30.8438,0 56.61984,-21.49325 63.28125,-50.3125 -19.57261,-22.9434 -46.11809,-41.29445 -78.5,-41.34375 z" style="opacity:0.75;fill:url(#linearGradient4888)"/>
		<path id="path4496" d="m 566.5625,818.34375 c -9.06824,3.05185 -26.36759,13.8017 -43,28.15625 1.26312,34.19531 28.96142,61.60672 63.25,62.5 16.87671,-32.51013 7.05936,-69.91923 -20.25,-90.65625 z" style="opacity:0.75;fill:#28170b"/>
		<g id="g4483">
			<path id="path4224-2" d="m 590.31114,806.30878 c -0.47239,-0.0321 -0.93151,0.0284 -1.375,0.25 -5.59922,2.80111 0,14 0,14 -16.80659,14.00851 -13.23603,37.9375 -32.84375,37.9375 -10.68885,0 -21.32208,-12.29336 -32.53125,-19.8125 -0.1443,1.77333 -0.25,3.56448 -0.25,5.375 0,24.51458 13.51013,45.86312 33.46875,57.06251 5.58277,-0.70321 11.15751,-2.11392 15.34375,-4.90625 21.99196,-14.6623 27.4523,-42.55657 36.4375,-56.03126 5.59618,-8.4063 31.82432,-7.67689 33.59375,-11.21875 2.80409,-5.6022 -5.60209,-14 -8.40625,-14 l -22.40625,0 c -1.56551,0 -4.02528,-2.78125 -5.59375,-2.78125 l -8.40625,0 c 0,0 -3.72451,-5.65027 -7.03125,-5.875 z" style="fill:#ffffff"/>
		</g>
	</g>
</svg>