<?xml version="1.0" encoding="utf-8"?>
<svg viewBox="142.426 358.515 243.952 27.013" height="15" xmlns="http://www.w3.org/2000/svg">
    <g style="font-size: 27.9203px; letter-spacing: 0px; word-spacing: 0px; fill: rgb(255, 255, 255); font-family: Sans;" id="g4767" transform="matrix(0.383707, 0, 0, 0.383707, 162.848747, 116.936617)">
        <path d="m 335.43979,637.17977 c 9.45999,0 13.75,5.28001 14.63,11.33 l 2.42,0 -1.1,-13.97 -2.53,0 c 0,1.32 -0.55,2.2 -1.32,2.2 -2.09,0 -6.6,-3.3 -12.21,-3.3 -17.26998,0 -33.33,12.87002 -33.33,34.21 0,16.71998 11.22002,32.34 31.68,32.34 13.52999,0 19.91,-7.70001 22.66,-14.3 l -2.64,-1.32 c -1.98,5.39 -10.12001,11.88 -17.82,11.88 -11.43999,0 -22.44,-10.56002 -22.44,-31.02 0,-16.71998 9.46001,-28.05 22,-28.05" style="-inkscape-font-specification:Judson Medium" id="path4769"/>
        <path d="m 371.57479,658.62977 c 1.1,-4.29 5.50001,-5.28 11.22,-5.28 8.57999,0 11,6.05001 11,17.82 -11.10999,3.19 -31.02,5.17001 -31.02,15.4 0,10.55999 7.26001,13.42 16.5,13.42 7.69999,0 12.98,-2.42 16.17,-4.73 1.76,3.52 4.62,4.51 7.81,4.51 7.58999,0 10.12,-1.87 10.12,-5.94 l -1.98,0 c 0,1.54 -1.87,2.64 -3.74,2.64 -1.87,0 -3.96,-1.76 -3.96,-6.82 l 0,-21.78 c 0,-10.22999 -5.39001,-18.48 -19.8,-18.48 -11.54999,0 -18.15,4.40001 -18.15,12.1 0,3.3 1.87,5.5 4.73,5.5 2.31,0 4.95,-1.1 4.95,-3.85 0,-3.41 -2.09,-4.51 -3.85,-4.51 m 22.88,33.88 c -3.41,2.09 -8.91,3.74 -13.31,3.74 -4.94999,0 -8.14,-1.98001 -8.14,-9.46 0,-8.90999 13.09001,-10.78 20.79,-13.2 l 0,12.98 c 0,2.31 0.22,4.29 0.66,5.94" style="-inkscape-font-specification:Judson Medium" id="path4771"/>
        <path d="m 415.7312,698.88977 23.76,0 0,-2.31 c -4.62,0 -6.27,-0.66 -6.93,-2.2 l 0,-36.41 c 2.52999,-2.31 6.49,-4.84 11.55,-4.84 6.59999,0 9.24,3.19001 9.24,12.87 l 0,28.38 c -0.66,1.54 -2.31001,2.2 -6.93,2.2 l 0,2.31 23.76,0 0,-2.31 c -4.62,0 -6.27,-0.66 -6.93,-2.2 l 0,-32.45 c 0,-1.21 -0.11,-2.42 -0.44,-3.52 2.52999,-2.42 6.6,-5.28 11.99,-5.28 6.59999,0 9.24,3.19001 9.24,12.87 l 0,28.38 c -0.66,1.54 -2.31001,2.2 -6.93,2.2 l 0,2.31 23.76,0 0,-2.31 c -4.62,0 -6.27,-0.66 -6.93,-2.2 l 0,-32.45 c 0,-7.91999 -5.50002,-12.54 -18.48,-12.54 -6.16,0 -11.00001,3.52 -13.75,6.38 -2.42,-4.07 -7.81001,-6.38 -16.94,-6.38 -5.17,0 -9.35001,2.53 -12.21,4.95 l 0,-4.95 c -4.95,0 -12.54001,4.73 -16.83,4.73 l 0,2.53 c 1.65,0 4.18,0.33 6.93,0.55 l 0,37.18 c -0.66,1.54 -2.31001,2.2 -6.93,2.2 l 0,2.31" style="-inkscape-font-specification:Judson Medium" id="path4773"/>
        <path d="m 517.08073,672.37977 35.31,0 c 0,-12.09999 -6.60002,-22.99 -23.1,-22.99 -14.73999,0 -22.66,10.56001 -22.66,22.88 0,22.21998 13.64001,27.72 23.76,27.72 11.43999,0 17.6,-3.30001 21.78,-10.12 l -2.64,-1.32 c -4.4,5.5 -9.02001,7.26 -15.4,7.26 -8.68999,0 -16.83,-11.11001 -17.05,-23.43 m 0.11,-3.41 c 0.99,-10.11999 6.82,-16.28 11.66,-16.28 9.78999,0 11.99,7.15001 12.76,16.28 l -24.42,0" style="-inkscape-font-specification:Judson Medium" id="path4775"/>
        <path d="m 558.79135,698.88977 23.76,0 0,-2.31 c -4.61999,0 -6.27,-0.66 -6.93,-2.2 l 0,-64.79 c -4.94999,0 -12.54,4.73 -16.83,4.73 l 0,2.53 c 1.65,0 4.18001,0.33 6.93,0.55 l 0,56.98 c -0.66,1.54 -2.31,2.2 -6.93,2.2 l 0,2.31" style="-inkscape-font-specification:Judson Medium" id="path4777"/>
    </g>
    <g transform="matrix(0.355499, 0, 0, 0.355499, 42.802773, 156.829043)" id="g4779">
        <path style="fill:#d22128" d="m 280.2335,639.49652 27.23347,-65.09625 h 5.22662 l 27.23347,65.09625 h -6.87714 l -8.43962,-20.35633 h -29.24709 l -8.3406,20.35633 h -6.78911 z m 29.89629,-57.58091 -13.39116,32.18501 h 26.40821 l -13.01705,-32.18501 z" id="path4781"/>
        <path style="fill:#d22128" d="m 346.95825,639.49652 v -65.09625 h 26.95838 c 11.19048,0 19.25599,10.36523 19.25599,20.44436 0,10.64031 -7.51534,20.63142 -18.70582,20.63142 h -21.18159 v 24.02047 h -6.32696 z m 6.32696,-29.70924 h 20.80748 c 7.70239,0 12.65393,-7.0642 12.65393,-14.94265 0,-8.16454 -6.05188,-14.76659 -13.20411,-14.76659 h -20.2573 v 29.70924 z" id="path4783"/>
        <path style="fill:#d22128" d="m 389.60751,639.49652 27.23347,-65.09625 h 5.22663 l 27.23346,65.09625 h -6.87713 l -8.43963,-20.35633 h -29.24709 l -8.3406,20.35633 h -6.78911 z m 29.8853,-57.58091 -13.39117,32.18501 h 26.40821 l -13.01704,-32.18501 z" id="path4785"/>
        <path style="fill:#d22128" d="m 480.09965,574.03716 c 11.5536,0 19.98222,5.86482 24.02047,14.21642 l -5.1386,3.11397 c -4.12628,-8.61568 -12.19179,-11.55359 -19.25598,-11.55359 -15.59185,0 -24.1085,13.94133 -24.1085,27.04641 0,14.39247 10.54128,27.40952 24.38358,27.40952 7.33928,0 15.95496,-3.66414 20.08125,-12.10376 l 5.31465,2.75085 c -4.21431,9.71602 -15.7679,15.12971 -25.75901,15.12971 -17.88056,0 -30.43547,-17.05531 -30.43547,-33.56044 0,-15.67988 11.26751,-32.44909 30.89761,-32.44909 z" id="path4787"/>
        <path style="fill:#d22128" d="m 565.69527,574.40027 v 65.09625 h -6.41499 v -30.43547 h -38.6 v 30.43547 h -6.32698 v -65.09625 h 6.32698 v 28.97201 h 38.6 v -28.97201 h 6.41499 z" id="path4789"/>
        <path style="fill:#d22128" d="m 624.13445,633.80775 v 5.68877 h -43.7386 v -65.09625 h 42.91334 v 5.68877 h -36.58638 v 23.4703 h 31.90993 v 5.40268 h -31.90993 v 24.84573 h 37.41164 z" id="path4791"/>
        <path style="fill:#6d6e71" d="m 640.17744,573.74007 c 0.99031,0.99031 1.48546,2.18968 1.48546,3.58711 0,1.39744 -0.49515,2.59681 -1.48546,3.59812 -0.99031,1.00131 -2.20069,1.50747 -3.60912,1.50747 -1.41945,0 -2.61882,-0.49515 -3.59812,-1.48546 -0.97931,-0.99031 -1.47446,-2.18968 -1.47446,-3.58712 0,-1.39743 0.49515,-2.5968 1.48546,-3.59812 0.99031,-1.00131 2.18968,-1.50746 3.59812,-1.50746 1.40844,0 2.60781,0.49515 3.59812,1.48546 z m -0.42914,6.7671 c 0.86927,-0.88027 1.29841,-1.9366 1.29841,-3.16898 0,-1.23239 -0.42914,-2.27771 -1.2874,-3.14698 -0.85827,-0.86927 -1.9146,-1.30941 -3.15798,-1.30941 -1.24339,0 -2.29972,0.44014 -3.16899,1.30941 -0.85827,0.88027 -1.2984,1.9366 -1.2984,3.16898 0,1.23239 0.42913,2.28871 1.27639,3.15798 0.85827,0.86928 1.9036,1.30941 3.14698,1.30941 1.24339,0 2.32172,-0.44013 3.19099,-1.32041 z m -0.71522,-4.14829 c 0,0.91329 -0.39612,1.48546 -1.19937,1.71654 l 1.46345,1.98061 h -1.17736 l -1.32041,-1.83757 h -1.21038 v 1.83757 h -0.9573 v -5.50171 h 2.06865 c 0.83626,0 1.43044,0.14304 1.79355,0.42913 0.36312,0.28609 0.53917,0.74824 0.53917,1.37543 z m -1.22138,0.77024 c 0.18706,-0.15405 0.28609,-0.41813 0.28609,-0.78124 0,-0.36311 -0.099,-0.61619 -0.29709,-0.74823 -0.19806,-0.14305 -0.53917,-0.20907 -1.04533,-0.20907 h -1.16636 v 1.98062 h 1.14436 c 0.52816,0 0.88027,-0.077 1.07833,-0.24208 z" id="path4793"/>
    </g>
</svg>